<?xml version="1.0" standalone="no"?>
<!DOCTYPE svg PUBLIC "-//W3C//DTD SVG 20010904//EN"
 "http://www.w3.org/TR/2001/REC-SVG-20010904/DTD/svg10.dtd">
<svg version="1.0" xmlns="http://www.w3.org/2000/svg"
 width="465.000000pt" height="462.000000pt" viewBox="0 0 465.000000 462.000000"
 preserveAspectRatio="xMidYMid meet">

<g transform="translate(0.000000,462.000000) scale(0.100000,-0.100000)"
fill="#000000" stroke="none">
<path d="M2190 4037 c-91 -45 -302 -149 -470 -231 -168 -83 -543 -266 -835
-409 -291 -143 -572 -279 -623 -303 -50 -24 -92 -46 -92 -47 0 -2 75 18 168
45 92 26 168 48 170 48 1 0 -7 -17 -18 -37 -25 -48 -25 -103 0 -258 41 -252
52 -517 42 -1050 -5 -269 -6 -493 -3 -497 3 -3 39 -4 78 -1 l72 6 -2 591 c-2
620 3 724 49 1017 10 59 14 121 10 141 -8 45 -40 87 -80 103 -37 16 -49 11
174 73 96 27 479 133 851 237 l677 188 238 -66 c132 -36 520 -144 864 -240
344 -96 644 -180 668 -186 l42 -12 0 -1239 0 -1240 30 0 30 0 1 943 c1 518 5
1071 8 1228 l6 285 137 -37 c76 -21 143 -41 150 -45 9 -5 10 -4 3 4 -5 6 -91
49 -190 95 -99 46 -238 113 -310 148 l-130 64 -5 150 -5 150 -120 0 -120 0 -3
-82 c-2 -46 -6 -83 -11 -83 -4 0 -294 142 -645 315 -350 173 -638 315 -639
314 -1 0 -76 -37 -167 -82z m-1568 -1014 c33 -30 14 -103 -27 -103 -33 0 -46
71 -18 102 20 22 22 22 45 1z"/>
<path d="M1418 2538 c-2 -244 -2 -446 0 -450 2 -5 203 -8 448 -8 l444 0 0 450
0 450 -445 0 -445 0 -2 -442z m810 -15 l2 -373 -363 0 -364 0 -6 113 c-4 61
-7 228 -7 369 l0 257 153 4 c83 1 249 3 367 2 l215 0 3 -372z"/>
<path d="M1801 2847 c-68 -14 -145 -95 -162 -171 -11 -49 -10 -64 4 -110 17
-53 87 -146 111 -146 6 0 19 -9 29 -20 16 -19 16 -20 -7 -20 -27 0 -40 -22
-24 -38 8 -8 7 -16 -2 -27 -10 -12 -10 -19 -2 -27 7 -7 12 -20 12 -31 0 -12
11 -23 29 -30 16 -6 32 -19 34 -29 7 -25 61 -24 79 0 7 11 23 24 36 31 12 6
22 20 22 29 0 10 5 23 12 30 8 8 8 15 -1 26 -10 11 -9 19 1 36 11 17 11 22 -2
30 -11 7 -6 18 28 59 65 77 85 130 80 212 -3 56 -9 76 -33 111 -51 71 -148
105 -244 85z m144 -26 c87 -40 132 -118 121 -208 -8 -65 -23 -98 -82 -170 -47
-57 -51 -69 -31 -76 6 -2 10 -7 7 -10 -3 -3 -35 -1 -72 5 l-66 12 24 19 c14
10 24 29 24 43 0 13 5 24 10 24 6 0 10 7 10 15 0 8 13 29 29 47 21 25 29 47
34 91 5 52 4 57 -14 57 -16 0 -19 7 -19 51 0 43 -3 50 -17 47 -13 -2 -19 -15
-21 -46 -3 -34 -7 -42 -23 -42 -16 0 -19 7 -19 45 0 32 -4 45 -14 45 -15 0
-26 -30 -26 -71 0 -19 -6 -28 -22 -33 -43 -11 -4 -25 77 -28 l80 -3 3 -32 c2
-23 -5 -40 -27 -66 -17 -19 -31 -42 -31 -51 0 -9 -8 -16 -20 -16 -13 0 -20 7
-20 18 0 10 -11 29 -25 42 -17 16 -25 34 -25 57 0 18 -4 33 -10 33 -21 0 -9
-58 20 -95 17 -21 30 -44 30 -51 0 -8 5 -14 11 -14 6 0 9 -12 7 -27 -2 -22 -9
-29 -30 -31 -30 -4 -38 12 -13 22 18 6 20 32 3 42 -6 4 -19 -2 -29 -15 l-18
-22 -34 31 c-72 63 -98 179 -58 258 55 106 174 150 276 103z m-105 -154 c4 -5
17 -6 29 -2 17 5 21 15 21 46 0 21 5 39 10 39 6 0 10 -20 10 -44 0 -34 4 -46
18 -49 9 -3 -21 -5 -68 -4 -47 0 -75 2 -62 4 19 4 22 11 24 51 l1 47 4 -40 c3
-22 8 -44 13 -48z m-35 -227 c-3 -5 -11 -10 -16 -10 -6 0 -7 5 -4 10 3 6 11
10 16 10 6 0 7 -4 4 -10z m120 -100 c23 -8 14 -9 -41 -4 -39 2 -84 9 -100 14
-22 8 -12 9 41 5 39 -3 84 -9 100 -15z m-7 -26 c23 -4 42 -10 42 -15 0 -12 1
-12 -99 7 -144 27 -112 31 57 8z m-40 -25 c34 -6 61 -13 59 -15 -7 -7 -177 20
-177 29 0 5 12 6 28 3 15 -3 55 -11 90 -17z m47 -35 c13 -5 14 -8 3 -15 -16
-11 -75 -11 -119 -2 -34 8 -33 8 16 14 79 9 82 9 100 3z m-35 -43 c0 -12 -21
-19 -42 -13 -29 7 -21 22 12 22 17 0 30 -4 30 -9z"/>
<path d="M2412 2533 l3 -448 440 0 440 0 0 445 0 445 -443 3 -442 2 2 -447z
m491 373 c68 -29 110 -105 110 -201 0 -52 -9 -87 -41 -147 -2 -5 16 -8 41 -8
52 0 78 -20 57 -45 -11 -13 -45 -15 -224 -13 l-211 3 0 25 c0 23 4 25 47 28
l47 3 -25 52 c-28 61 -31 124 -9 188 19 53 41 81 86 108 40 24 77 26 122 7z
m161 -449 c15 -11 17 -21 12 -49 -9 -51 -61 -126 -99 -144 -31 -15 -33 -19
-33 -62 l1 -47 -95 0 -95 0 2 46 c1 43 -1 47 -33 62 -63 31 -125 155 -95 191
16 19 410 21 435 3z"/>
<path d="M2805 2858 c-91 -52 -97 -228 -10 -296 105 -83 219 101 149 240 -29
58 -92 83 -139 56z"/>
<path d="M2680 2401 c0 -21 49 -78 80 -93 43 -22 140 -24 180 -3 35 18 70 61
70 86 0 18 -11 19 -165 19 -91 0 -165 -4 -165 -9z"/>
<path d="M2810 2235 c-22 -27 -6 -41 44 -37 49 4 62 23 27 42 -28 14 -56 12
-71 -5z"/>
<path d="M2410 1550 l0 -450 445 0 445 0 0 450 0 450 -445 0 -445 0 0 -450z
m810 -5 l0 -365 -365 0 -365 0 0 358 c0 197 3 362 7 365 3 4 168 7 365 7 l358
0 0 -365z"/>
<path d="M2737 1874 c-4 -4 -7 -69 -7 -144 l0 -136 30 -18 c57 -33 62 -50 49
-177 -13 -139 -2 -192 43 -197 44 -5 50 21 46 190 -3 138 -1 152 16 162 63 38
61 32 61 182 l0 139 -116 3 c-63 1 -118 -1 -122 -4z m176 -191 c-29 -2 -78 -2
-110 0 -32 2 -8 3 52 3 61 0 87 -1 58 -3z m0 -70 c-29 -2 -78 -2 -110 0 -32 2
-8 3 52 3 61 0 87 -1 58 -3z m-45 -361 c2 -7 -3 -12 -12 -12 -9 0 -16 7 -16
16 0 17 22 14 28 -4z"/>
<path d="M1410 1545 l0 -445 450 0 450 0 0 445 0 445 -450 0 -450 0 0 -445z
m527 324 c52 -19 73 -48 73 -98 0 -41 4 -50 37 -77 l37 -31 -3 -144 -2 -144
-32 -28 c-18 -15 -69 -46 -114 -69 -68 -34 -95 -42 -155 -45 -72 -5 -73 -5
-112 31 l-39 36 5 142 4 141 31 26 c24 20 33 37 38 76 13 89 55 149 125 179
42 18 69 20 107 5z"/>
<path d="M1825 1846 c-70 -31 -105 -101 -105 -211 0 -73 1 -75 25 -75 22 0 25
4 25 39 0 21 4 63 10 92 13 68 61 119 114 119 46 0 58 -19 58 -90 0 -33 4 -58
8 -55 5 3 10 -1 13 -7 3 -10 7 -10 17 -1 8 8 11 34 8 83 -3 64 -7 75 -31 96
-32 28 -93 32 -142 10z"/>
<path d="M1865 1791 c-29 -12 -54 -44 -65 -81 -5 -19 -8 -35 -6 -37 2 -3 36 6
76 19 l71 23 -6 35 c-4 19 -9 38 -11 42 -6 10 -33 9 -59 -1z"/>
<path d="M1841 1668 l-53 -22 5 -42 c4 -36 1 -44 -19 -54 -36 -20 -72 -5 -76
31 -3 28 -4 29 -23 15 -20 -14 -20 -14 0 -36 34 -37 50 -41 122 -30 74 12 216
75 247 109 16 17 17 23 6 36 -16 20 -35 14 -35 -11 0 -25 -48 -42 -69 -24 -9
7 -16 21 -16 31 0 24 -20 23 -89 -3z"/>
<path d="M2015 1600 c-57 -41 -152 -77 -223 -86 l-62 -7 0 -66 c0 -36 3 -97 7
-135 l6 -68 40 6 c68 11 150 45 213 88 l61 41 7 66 c8 91 8 191 -1 190 -5 0
-26 -14 -48 -29z m-57 -112 c15 -15 16 -64 2 -73 -5 -3 -10 -21 -10 -39 0 -35
-21 -62 -40 -51 -5 3 -10 20 -10 36 0 17 -7 37 -15 45 -8 9 -15 25 -15 36 0
45 58 76 88 46z"/>
<path d="M1902 1478 c-17 -17 -15 -53 3 -68 8 -7 15 -26 15 -42 0 -17 4 -27
10 -23 6 3 10 21 10 40 0 19 5 37 10 40 15 9 12 31 -6 49 -19 19 -26 20 -42 4z"/>
<path d="M1650 1488 c0 -34 -3 -86 -6 -114 -6 -47 -4 -53 26 -87 18 -20 36
-37 42 -37 6 0 8 50 6 130 l-3 131 -32 20 -33 21 0 -64z"/>
<path d="M550 1040 l0 -210 50 0 50 0 0 210 0 210 -50 0 -50 0 0 -210z"/>
<path d="M175 918 c3 -13 11 -56 20 -96 16 -82 55 -175 88 -210 32 -34 104
-75 146 -81 27 -5 37 -12 39 -29 3 -21 7 -22 128 -22 68 0 127 0 132 0 4 0 8
11 10 25 2 13 13 31 24 39 27 19 56 5 70 -35 9 -28 13 -29 69 -29 l59 0 0 155
0 155 -64 0 c-63 0 -64 0 -70 -30 -12 -63 -86 -62 -86 1 l0 29 -135 0 -135 0
0 -26 c0 -26 -1 -27 -51 -21 -86 10 -181 80 -216 159 -18 42 -36 51 -28 16z"/>
<path d="M1047 772 c-14 -15 -17 -41 -17 -133 0 -139 6 -152 70 -147 40 3 44
6 55 38 l12 35 489 7 c902 13 1717 29 1957 39 213 8 328 22 476 55 42 9 9 20
-133 44 -137 23 -144 23 -760 17 -341 -3 -934 -11 -1317 -18 -383 -7 -704 -9
-713 -6 -9 4 -16 18 -16 35 0 15 -5 33 -12 40 -18 18 -73 14 -91 -6z"/>
</g>
</svg>
